<mxfile host="app.diagrams.net" modified="2024-02-13T15:23:02.748Z" agent="Mozilla/5.0 (Macintosh; Intel Mac OS X 10_15_7) AppleWebKit/537.36 (KHTML, like Gecko) Chrome/120.0.0.0 Safari/537.36" etag="4gWUmYw79J646K9nM9wx" version="23.1.2" type="device">
  <diagram name="第 1 页" id="_1i21SUvx77jp9cxokIm">
    <mxGraphModel dx="954" dy="877" grid="1" gridSize="10" guides="1" tooltips="1" connect="1" arrows="1" fold="1" page="1" pageScale="1" pageWidth="900" pageHeight="1600" math="0" shadow="0">
      <root>
        <mxCell id="0" />
        <mxCell id="1" parent="0" />
        <mxCell id="kMcnjCtyU5_ult0w1ALG-1" value="&lt;font style=&quot;font-size: 24px;&quot;&gt;Data&lt;/font&gt;" style="rounded=0;whiteSpace=wrap;html=1;" parent="1" vertex="1">
          <mxGeometry x="75" y="40" width="750" height="60" as="geometry" />
        </mxCell>
        <mxCell id="aNOmOmiapZUNBAK5stLF-1" value="&lt;font style=&quot;font-size: 24px;&quot;&gt;MPI Library&lt;/font&gt;" style="rounded=0;whiteSpace=wrap;html=1;" vertex="1" parent="1">
          <mxGeometry x="75" y="140" width="750" height="60" as="geometry" />
        </mxCell>
        <mxCell id="aNOmOmiapZUNBAK5stLF-2" value="" style="shape=flexArrow;endArrow=classic;html=1;rounded=0;width=12;endSize=7.17;entryX=0.5;entryY=1;entryDx=0;entryDy=0;exitX=0.5;exitY=0;exitDx=0;exitDy=0;endWidth=18;" edge="1" parent="1" source="aNOmOmiapZUNBAK5stLF-1" target="kMcnjCtyU5_ult0w1ALG-1">
          <mxGeometry width="50" height="50" relative="1" as="geometry">
            <mxPoint x="460" y="190" as="sourcePoint" />
            <mxPoint x="510" y="140" as="targetPoint" />
          </mxGeometry>
        </mxCell>
        <mxCell id="aNOmOmiapZUNBAK5stLF-3" value="&lt;font style=&quot;font-size: 16px;&quot;&gt;fread()&lt;/font&gt;" style="text;html=1;strokeColor=none;fillColor=none;align=center;verticalAlign=middle;whiteSpace=wrap;rounded=0;" vertex="1" parent="1">
          <mxGeometry x="470" y="100" width="70" height="40" as="geometry" />
        </mxCell>
        <mxCell id="aNOmOmiapZUNBAK5stLF-4" value="&lt;font style=&quot;font-size: 24px;&quot;&gt;buffer&lt;/font&gt;" style="rounded=0;whiteSpace=wrap;html=1;" vertex="1" parent="1">
          <mxGeometry x="75" y="240" width="750" height="60" as="geometry" />
        </mxCell>
        <mxCell id="aNOmOmiapZUNBAK5stLF-5" value="" style="shape=flexArrow;endArrow=classic;html=1;rounded=0;width=12;endSize=7.17;entryX=0.5;entryY=0;entryDx=0;entryDy=0;exitX=0.5;exitY=1;exitDx=0;exitDy=0;endWidth=18;" edge="1" parent="1" source="aNOmOmiapZUNBAK5stLF-1" target="aNOmOmiapZUNBAK5stLF-4">
          <mxGeometry width="50" height="50" relative="1" as="geometry">
            <mxPoint x="460" y="150" as="sourcePoint" />
            <mxPoint x="460" y="110" as="targetPoint" />
          </mxGeometry>
        </mxCell>
        <mxCell id="aNOmOmiapZUNBAK5stLF-7" value="" style="rounded=0;whiteSpace=wrap;html=1;" vertex="1" parent="1">
          <mxGeometry x="75" y="390" width="60" height="1110" as="geometry" />
        </mxCell>
        <mxCell id="aNOmOmiapZUNBAK5stLF-21" value="0" style="text;html=1;strokeColor=none;fillColor=none;align=center;verticalAlign=middle;whiteSpace=wrap;rounded=0;fontSize=16;" vertex="1" parent="1">
          <mxGeometry x="75" y="355" width="60" height="30" as="geometry" />
        </mxCell>
        <mxCell id="aNOmOmiapZUNBAK5stLF-22" value="1" style="text;html=1;strokeColor=none;fillColor=none;align=center;verticalAlign=middle;whiteSpace=wrap;rounded=0;fontSize=16;" vertex="1" parent="1">
          <mxGeometry x="174" y="355" width="60" height="30" as="geometry" />
        </mxCell>
        <mxCell id="aNOmOmiapZUNBAK5stLF-23" value="2" style="text;html=1;strokeColor=none;fillColor=none;align=center;verticalAlign=middle;whiteSpace=wrap;rounded=0;fontSize=16;" vertex="1" parent="1">
          <mxGeometry x="272" y="355" width="60" height="30" as="geometry" />
        </mxCell>
        <mxCell id="aNOmOmiapZUNBAK5stLF-24" value="3" style="text;html=1;strokeColor=none;fillColor=none;align=center;verticalAlign=middle;whiteSpace=wrap;rounded=0;fontSize=16;" vertex="1" parent="1">
          <mxGeometry x="371" y="355" width="60" height="30" as="geometry" />
        </mxCell>
        <mxCell id="aNOmOmiapZUNBAK5stLF-25" value="4" style="text;html=1;strokeColor=none;fillColor=none;align=center;verticalAlign=middle;whiteSpace=wrap;rounded=0;fontSize=16;" vertex="1" parent="1">
          <mxGeometry x="470" y="355" width="60" height="30" as="geometry" />
        </mxCell>
        <mxCell id="aNOmOmiapZUNBAK5stLF-26" value="5" style="text;html=1;strokeColor=none;fillColor=none;align=center;verticalAlign=middle;whiteSpace=wrap;rounded=0;fontSize=16;" vertex="1" parent="1">
          <mxGeometry x="568" y="355" width="60" height="30" as="geometry" />
        </mxCell>
        <mxCell id="aNOmOmiapZUNBAK5stLF-27" value="6" style="text;html=1;strokeColor=none;fillColor=none;align=center;verticalAlign=middle;whiteSpace=wrap;rounded=0;fontSize=16;" vertex="1" parent="1">
          <mxGeometry x="666" y="355" width="60" height="30" as="geometry" />
        </mxCell>
        <mxCell id="aNOmOmiapZUNBAK5stLF-28" value="7" style="text;html=1;strokeColor=none;fillColor=none;align=center;verticalAlign=middle;whiteSpace=wrap;rounded=0;fontSize=16;" vertex="1" parent="1">
          <mxGeometry x="765" y="355" width="60" height="30" as="geometry" />
        </mxCell>
        <mxCell id="aNOmOmiapZUNBAK5stLF-33" value="" style="rounded=0;whiteSpace=wrap;html=1;" vertex="1" parent="1">
          <mxGeometry x="666" y="390" width="60" height="1110" as="geometry" />
        </mxCell>
        <mxCell id="aNOmOmiapZUNBAK5stLF-34" value="" style="rounded=0;whiteSpace=wrap;html=1;" vertex="1" parent="1">
          <mxGeometry x="174" y="390" width="60" height="1110" as="geometry" />
        </mxCell>
        <mxCell id="aNOmOmiapZUNBAK5stLF-35" value="" style="rounded=0;whiteSpace=wrap;html=1;" vertex="1" parent="1">
          <mxGeometry x="272" y="390" width="60" height="1110" as="geometry" />
        </mxCell>
        <mxCell id="aNOmOmiapZUNBAK5stLF-36" value="" style="rounded=0;whiteSpace=wrap;html=1;" vertex="1" parent="1">
          <mxGeometry x="371" y="390" width="60" height="1110" as="geometry" />
        </mxCell>
        <mxCell id="aNOmOmiapZUNBAK5stLF-37" value="" style="rounded=0;whiteSpace=wrap;html=1;" vertex="1" parent="1">
          <mxGeometry x="469" y="390" width="60" height="1110" as="geometry" />
        </mxCell>
        <mxCell id="aNOmOmiapZUNBAK5stLF-38" value="" style="rounded=0;whiteSpace=wrap;html=1;" vertex="1" parent="1">
          <mxGeometry x="568" y="390" width="60" height="1110" as="geometry" />
        </mxCell>
        <mxCell id="aNOmOmiapZUNBAK5stLF-39" value="" style="rounded=0;whiteSpace=wrap;html=1;" vertex="1" parent="1">
          <mxGeometry x="765" y="390" width="60" height="1110" as="geometry" />
        </mxCell>
        <mxCell id="aNOmOmiapZUNBAK5stLF-40" value="" style="endArrow=classic;html=1;rounded=0;entryX=0.5;entryY=1;entryDx=0;entryDy=0;" edge="1" parent="1" target="aNOmOmiapZUNBAK5stLF-4">
          <mxGeometry width="50" height="50" relative="1" as="geometry">
            <mxPoint x="110" y="360" as="sourcePoint" />
            <mxPoint x="160" y="310" as="targetPoint" />
          </mxGeometry>
        </mxCell>
        <mxCell id="aNOmOmiapZUNBAK5stLF-41" value="" style="endArrow=classic;html=1;rounded=0;entryX=0.5;entryY=1;entryDx=0;entryDy=0;exitX=0.5;exitY=0;exitDx=0;exitDy=0;" edge="1" parent="1" source="aNOmOmiapZUNBAK5stLF-22" target="aNOmOmiapZUNBAK5stLF-4">
          <mxGeometry width="50" height="50" relative="1" as="geometry">
            <mxPoint x="120" y="370" as="sourcePoint" />
            <mxPoint x="460" y="310" as="targetPoint" />
          </mxGeometry>
        </mxCell>
        <mxCell id="aNOmOmiapZUNBAK5stLF-42" value="" style="endArrow=classic;html=1;rounded=0;exitX=0.5;exitY=0;exitDx=0;exitDy=0;" edge="1" parent="1" source="aNOmOmiapZUNBAK5stLF-23">
          <mxGeometry width="50" height="50" relative="1" as="geometry">
            <mxPoint x="130" y="380" as="sourcePoint" />
            <mxPoint x="450" y="300" as="targetPoint" />
          </mxGeometry>
        </mxCell>
        <mxCell id="aNOmOmiapZUNBAK5stLF-43" value="" style="endArrow=classic;html=1;rounded=0;exitX=0.5;exitY=0;exitDx=0;exitDy=0;entryX=0.5;entryY=1;entryDx=0;entryDy=0;" edge="1" parent="1" source="aNOmOmiapZUNBAK5stLF-24" target="aNOmOmiapZUNBAK5stLF-4">
          <mxGeometry width="50" height="50" relative="1" as="geometry">
            <mxPoint x="140" y="390" as="sourcePoint" />
            <mxPoint x="440" y="300" as="targetPoint" />
          </mxGeometry>
        </mxCell>
        <mxCell id="aNOmOmiapZUNBAK5stLF-44" value="" style="endArrow=classic;html=1;rounded=0;entryX=0.5;entryY=1;entryDx=0;entryDy=0;exitX=0.5;exitY=0;exitDx=0;exitDy=0;" edge="1" parent="1" source="aNOmOmiapZUNBAK5stLF-25" target="aNOmOmiapZUNBAK5stLF-4">
          <mxGeometry width="50" height="50" relative="1" as="geometry">
            <mxPoint x="150" y="400" as="sourcePoint" />
            <mxPoint x="490" y="340" as="targetPoint" />
          </mxGeometry>
        </mxCell>
        <mxCell id="aNOmOmiapZUNBAK5stLF-45" value="" style="endArrow=classic;html=1;rounded=0;entryX=0.5;entryY=1;entryDx=0;entryDy=0;exitX=0.5;exitY=0;exitDx=0;exitDy=0;" edge="1" parent="1" source="aNOmOmiapZUNBAK5stLF-26" target="aNOmOmiapZUNBAK5stLF-4">
          <mxGeometry width="50" height="50" relative="1" as="geometry">
            <mxPoint x="160" y="410" as="sourcePoint" />
            <mxPoint x="500" y="350" as="targetPoint" />
          </mxGeometry>
        </mxCell>
        <mxCell id="aNOmOmiapZUNBAK5stLF-46" value="" style="endArrow=classic;html=1;rounded=0;entryX=0.5;entryY=1;entryDx=0;entryDy=0;exitX=0.5;exitY=0;exitDx=0;exitDy=0;" edge="1" parent="1" source="aNOmOmiapZUNBAK5stLF-27" target="aNOmOmiapZUNBAK5stLF-4">
          <mxGeometry width="50" height="50" relative="1" as="geometry">
            <mxPoint x="170" y="420" as="sourcePoint" />
            <mxPoint x="510" y="360" as="targetPoint" />
          </mxGeometry>
        </mxCell>
        <mxCell id="aNOmOmiapZUNBAK5stLF-47" value="" style="endArrow=classic;html=1;rounded=0;entryX=0.5;entryY=1;entryDx=0;entryDy=0;exitX=0.5;exitY=0;exitDx=0;exitDy=0;" edge="1" parent="1" source="aNOmOmiapZUNBAK5stLF-28" target="aNOmOmiapZUNBAK5stLF-4">
          <mxGeometry width="50" height="50" relative="1" as="geometry">
            <mxPoint x="180" y="430" as="sourcePoint" />
            <mxPoint x="520" y="370" as="targetPoint" />
          </mxGeometry>
        </mxCell>
        <mxCell id="aNOmOmiapZUNBAK5stLF-48" value="&lt;span style=&quot;font-size: 16px;&quot;&gt;MPI_File_read_at_all()&lt;br&gt;&lt;/span&gt;" style="text;html=1;strokeColor=none;fillColor=none;align=center;verticalAlign=middle;whiteSpace=wrap;rounded=0;" vertex="1" parent="1">
          <mxGeometry x="720" y="310" width="111" height="40" as="geometry" />
        </mxCell>
        <mxCell id="aNOmOmiapZUNBAK5stLF-49" value="" style="whiteSpace=wrap;html=1;aspect=fixed;" vertex="1" parent="1">
          <mxGeometry x="75" y="390" width="60" height="60" as="geometry" />
        </mxCell>
        <mxCell id="aNOmOmiapZUNBAK5stLF-53" value="&lt;span style=&quot;font-size: 16px;&quot;&gt;local sort&lt;br&gt;&lt;/span&gt;" style="text;html=1;strokeColor=none;fillColor=none;align=center;verticalAlign=middle;whiteSpace=wrap;rounded=0;" vertex="1" parent="1">
          <mxGeometry x="80" y="395" width="50" height="50" as="geometry" />
        </mxCell>
        <mxCell id="aNOmOmiapZUNBAK5stLF-54" value="" style="whiteSpace=wrap;html=1;aspect=fixed;" vertex="1" parent="1">
          <mxGeometry x="174" y="390" width="60" height="60" as="geometry" />
        </mxCell>
        <mxCell id="aNOmOmiapZUNBAK5stLF-55" value="&lt;span style=&quot;font-size: 16px;&quot;&gt;local sort&lt;br&gt;&lt;/span&gt;" style="text;html=1;strokeColor=none;fillColor=none;align=center;verticalAlign=middle;whiteSpace=wrap;rounded=0;" vertex="1" parent="1">
          <mxGeometry x="179" y="395" width="50" height="50" as="geometry" />
        </mxCell>
        <mxCell id="aNOmOmiapZUNBAK5stLF-56" value="" style="whiteSpace=wrap;html=1;aspect=fixed;" vertex="1" parent="1">
          <mxGeometry x="272" y="390" width="60" height="60" as="geometry" />
        </mxCell>
        <mxCell id="aNOmOmiapZUNBAK5stLF-57" value="&lt;span style=&quot;font-size: 16px;&quot;&gt;local sort&lt;br&gt;&lt;/span&gt;" style="text;html=1;strokeColor=none;fillColor=none;align=center;verticalAlign=middle;whiteSpace=wrap;rounded=0;" vertex="1" parent="1">
          <mxGeometry x="277" y="395" width="50" height="50" as="geometry" />
        </mxCell>
        <mxCell id="aNOmOmiapZUNBAK5stLF-58" value="" style="whiteSpace=wrap;html=1;aspect=fixed;" vertex="1" parent="1">
          <mxGeometry x="371" y="390" width="60" height="60" as="geometry" />
        </mxCell>
        <mxCell id="aNOmOmiapZUNBAK5stLF-59" value="&lt;span style=&quot;font-size: 16px;&quot;&gt;local sort&lt;br&gt;&lt;/span&gt;" style="text;html=1;strokeColor=none;fillColor=none;align=center;verticalAlign=middle;whiteSpace=wrap;rounded=0;" vertex="1" parent="1">
          <mxGeometry x="376" y="395" width="50" height="50" as="geometry" />
        </mxCell>
        <mxCell id="aNOmOmiapZUNBAK5stLF-60" value="" style="whiteSpace=wrap;html=1;aspect=fixed;" vertex="1" parent="1">
          <mxGeometry x="469" y="390" width="60" height="60" as="geometry" />
        </mxCell>
        <mxCell id="aNOmOmiapZUNBAK5stLF-61" value="&lt;span style=&quot;font-size: 16px;&quot;&gt;local sort&lt;br&gt;&lt;/span&gt;" style="text;html=1;strokeColor=none;fillColor=none;align=center;verticalAlign=middle;whiteSpace=wrap;rounded=0;" vertex="1" parent="1">
          <mxGeometry x="474" y="395" width="50" height="50" as="geometry" />
        </mxCell>
        <mxCell id="aNOmOmiapZUNBAK5stLF-62" value="" style="whiteSpace=wrap;html=1;aspect=fixed;" vertex="1" parent="1">
          <mxGeometry x="568" y="390" width="60" height="60" as="geometry" />
        </mxCell>
        <mxCell id="aNOmOmiapZUNBAK5stLF-63" value="&lt;span style=&quot;font-size: 16px;&quot;&gt;local sort&lt;br&gt;&lt;/span&gt;" style="text;html=1;strokeColor=none;fillColor=none;align=center;verticalAlign=middle;whiteSpace=wrap;rounded=0;" vertex="1" parent="1">
          <mxGeometry x="573" y="395" width="50" height="50" as="geometry" />
        </mxCell>
        <mxCell id="aNOmOmiapZUNBAK5stLF-64" value="" style="whiteSpace=wrap;html=1;aspect=fixed;" vertex="1" parent="1">
          <mxGeometry x="666" y="390" width="60" height="60" as="geometry" />
        </mxCell>
        <mxCell id="aNOmOmiapZUNBAK5stLF-65" value="&lt;span style=&quot;font-size: 16px;&quot;&gt;local sort&lt;br&gt;&lt;/span&gt;" style="text;html=1;strokeColor=none;fillColor=none;align=center;verticalAlign=middle;whiteSpace=wrap;rounded=0;" vertex="1" parent="1">
          <mxGeometry x="671" y="395" width="50" height="50" as="geometry" />
        </mxCell>
        <mxCell id="aNOmOmiapZUNBAK5stLF-66" value="" style="whiteSpace=wrap;html=1;aspect=fixed;" vertex="1" parent="1">
          <mxGeometry x="765" y="390" width="60" height="60" as="geometry" />
        </mxCell>
        <mxCell id="aNOmOmiapZUNBAK5stLF-67" value="&lt;span style=&quot;font-size: 16px;&quot;&gt;local sort&lt;br&gt;&lt;/span&gt;" style="text;html=1;strokeColor=none;fillColor=none;align=center;verticalAlign=middle;whiteSpace=wrap;rounded=0;" vertex="1" parent="1">
          <mxGeometry x="770" y="395" width="50" height="50" as="geometry" />
        </mxCell>
        <mxCell id="aNOmOmiapZUNBAK5stLF-162" style="edgeStyle=orthogonalEdgeStyle;rounded=0;orthogonalLoop=1;jettySize=auto;html=1;entryX=0;entryY=0.5;entryDx=0;entryDy=0;" edge="1" parent="1" source="aNOmOmiapZUNBAK5stLF-73" target="aNOmOmiapZUNBAK5stLF-91">
          <mxGeometry relative="1" as="geometry" />
        </mxCell>
        <mxCell id="aNOmOmiapZUNBAK5stLF-73" value="" style="whiteSpace=wrap;html=1;aspect=fixed;" vertex="1" parent="1">
          <mxGeometry x="75" y="480" width="60" height="60" as="geometry" />
        </mxCell>
        <mxCell id="aNOmOmiapZUNBAK5stLF-74" value="&lt;span style=&quot;font-size: 16px;&quot;&gt;check&lt;br&gt;swap&lt;br&gt;&lt;/span&gt;" style="text;html=1;strokeColor=none;fillColor=none;align=center;verticalAlign=middle;whiteSpace=wrap;rounded=0;" vertex="1" parent="1">
          <mxGeometry x="80" y="485" width="50" height="50" as="geometry" />
        </mxCell>
        <mxCell id="aNOmOmiapZUNBAK5stLF-164" style="edgeStyle=orthogonalEdgeStyle;rounded=0;orthogonalLoop=1;jettySize=auto;html=1;entryX=1;entryY=0.5;entryDx=0;entryDy=0;" edge="1" parent="1" source="aNOmOmiapZUNBAK5stLF-75" target="aNOmOmiapZUNBAK5stLF-106">
          <mxGeometry relative="1" as="geometry" />
        </mxCell>
        <mxCell id="aNOmOmiapZUNBAK5stLF-75" value="" style="whiteSpace=wrap;html=1;aspect=fixed;" vertex="1" parent="1">
          <mxGeometry x="765" y="480" width="60" height="60" as="geometry" />
        </mxCell>
        <mxCell id="aNOmOmiapZUNBAK5stLF-76" value="&lt;span style=&quot;font-size: 16px;&quot;&gt;check&lt;br&gt;swap&lt;br&gt;&lt;/span&gt;" style="text;html=1;strokeColor=none;fillColor=none;align=center;verticalAlign=middle;whiteSpace=wrap;rounded=0;" vertex="1" parent="1">
          <mxGeometry x="770" y="485" width="50" height="50" as="geometry" />
        </mxCell>
        <mxCell id="aNOmOmiapZUNBAK5stLF-91" value="" style="whiteSpace=wrap;html=1;aspect=fixed;" vertex="1" parent="1">
          <mxGeometry x="174" y="480" width="60" height="60" as="geometry" />
        </mxCell>
        <mxCell id="aNOmOmiapZUNBAK5stLF-92" value="&lt;span style=&quot;font-size: 16px;&quot;&gt;check&lt;br&gt;swap&lt;br&gt;&lt;/span&gt;" style="text;html=1;strokeColor=none;fillColor=none;align=center;verticalAlign=middle;whiteSpace=wrap;rounded=0;" vertex="1" parent="1">
          <mxGeometry x="179" y="485" width="50" height="50" as="geometry" />
        </mxCell>
        <mxCell id="aNOmOmiapZUNBAK5stLF-93" value="" style="whiteSpace=wrap;html=1;aspect=fixed;" vertex="1" parent="1">
          <mxGeometry x="272" y="480" width="60" height="60" as="geometry" />
        </mxCell>
        <mxCell id="aNOmOmiapZUNBAK5stLF-94" value="&lt;span style=&quot;font-size: 16px;&quot;&gt;check&lt;br&gt;swap&lt;br&gt;&lt;/span&gt;" style="text;html=1;strokeColor=none;fillColor=none;align=center;verticalAlign=middle;whiteSpace=wrap;rounded=0;" vertex="1" parent="1">
          <mxGeometry x="277" y="485" width="50" height="50" as="geometry" />
        </mxCell>
        <mxCell id="aNOmOmiapZUNBAK5stLF-100" value="" style="whiteSpace=wrap;html=1;aspect=fixed;" vertex="1" parent="1">
          <mxGeometry x="371" y="480" width="60" height="60" as="geometry" />
        </mxCell>
        <mxCell id="aNOmOmiapZUNBAK5stLF-161" style="edgeStyle=orthogonalEdgeStyle;rounded=0;orthogonalLoop=1;jettySize=auto;html=1;entryX=1;entryY=0.5;entryDx=0;entryDy=0;" edge="1" parent="1" target="aNOmOmiapZUNBAK5stLF-93">
          <mxGeometry relative="1" as="geometry">
            <mxPoint x="370" y="510" as="sourcePoint" />
          </mxGeometry>
        </mxCell>
        <mxCell id="aNOmOmiapZUNBAK5stLF-101" value="&lt;span style=&quot;font-size: 16px;&quot;&gt;check&lt;br&gt;swap&lt;br&gt;&lt;/span&gt;" style="text;html=1;strokeColor=none;fillColor=none;align=center;verticalAlign=middle;whiteSpace=wrap;rounded=0;" vertex="1" parent="1">
          <mxGeometry x="376" y="485" width="50" height="50" as="geometry" />
        </mxCell>
        <mxCell id="aNOmOmiapZUNBAK5stLF-163" style="edgeStyle=orthogonalEdgeStyle;rounded=0;orthogonalLoop=1;jettySize=auto;html=1;entryX=0;entryY=0.5;entryDx=0;entryDy=0;" edge="1" parent="1" source="aNOmOmiapZUNBAK5stLF-102" target="aNOmOmiapZUNBAK5stLF-104">
          <mxGeometry relative="1" as="geometry" />
        </mxCell>
        <mxCell id="aNOmOmiapZUNBAK5stLF-102" value="" style="whiteSpace=wrap;html=1;aspect=fixed;" vertex="1" parent="1">
          <mxGeometry x="469" y="480" width="60" height="60" as="geometry" />
        </mxCell>
        <mxCell id="aNOmOmiapZUNBAK5stLF-103" value="&lt;span style=&quot;font-size: 16px;&quot;&gt;check&lt;br&gt;swap&lt;br&gt;&lt;/span&gt;" style="text;html=1;strokeColor=none;fillColor=none;align=center;verticalAlign=middle;whiteSpace=wrap;rounded=0;" vertex="1" parent="1">
          <mxGeometry x="474" y="485" width="50" height="50" as="geometry" />
        </mxCell>
        <mxCell id="aNOmOmiapZUNBAK5stLF-104" value="" style="whiteSpace=wrap;html=1;aspect=fixed;" vertex="1" parent="1">
          <mxGeometry x="568" y="480" width="60" height="60" as="geometry" />
        </mxCell>
        <mxCell id="aNOmOmiapZUNBAK5stLF-105" value="&lt;span style=&quot;font-size: 16px;&quot;&gt;check&lt;br&gt;swap&lt;br&gt;&lt;/span&gt;" style="text;html=1;strokeColor=none;fillColor=none;align=center;verticalAlign=middle;whiteSpace=wrap;rounded=0;" vertex="1" parent="1">
          <mxGeometry x="573" y="485" width="50" height="50" as="geometry" />
        </mxCell>
        <mxCell id="aNOmOmiapZUNBAK5stLF-106" value="" style="whiteSpace=wrap;html=1;aspect=fixed;" vertex="1" parent="1">
          <mxGeometry x="666" y="480" width="60" height="60" as="geometry" />
        </mxCell>
        <mxCell id="aNOmOmiapZUNBAK5stLF-107" value="&lt;span style=&quot;font-size: 16px;&quot;&gt;check&lt;br&gt;swap&lt;br&gt;&lt;/span&gt;" style="text;html=1;strokeColor=none;fillColor=none;align=center;verticalAlign=middle;whiteSpace=wrap;rounded=0;" vertex="1" parent="1">
          <mxGeometry x="671" y="485" width="50" height="50" as="geometry" />
        </mxCell>
        <mxCell id="aNOmOmiapZUNBAK5stLF-132" value="" style="whiteSpace=wrap;html=1;aspect=fixed;" vertex="1" parent="1">
          <mxGeometry x="75" y="600" width="60" height="60" as="geometry" />
        </mxCell>
        <mxCell id="aNOmOmiapZUNBAK5stLF-152" style="edgeStyle=orthogonalEdgeStyle;rounded=0;orthogonalLoop=1;jettySize=auto;html=1;exitX=1;exitY=0.5;exitDx=0;exitDy=0;" edge="1" parent="1" source="aNOmOmiapZUNBAK5stLF-132">
          <mxGeometry relative="1" as="geometry">
            <mxPoint x="270" y="630" as="targetPoint" />
            <mxPoint x="150" y="630" as="sourcePoint" />
          </mxGeometry>
        </mxCell>
        <mxCell id="aNOmOmiapZUNBAK5stLF-133" value="&lt;span style=&quot;font-size: 16px;&quot;&gt;check&lt;br&gt;swap&lt;br&gt;&lt;/span&gt;" style="text;html=1;strokeColor=none;fillColor=none;align=center;verticalAlign=middle;whiteSpace=wrap;rounded=0;" vertex="1" parent="1">
          <mxGeometry x="80" y="605" width="50" height="50" as="geometry" />
        </mxCell>
        <mxCell id="aNOmOmiapZUNBAK5stLF-169" style="edgeStyle=orthogonalEdgeStyle;rounded=0;orthogonalLoop=1;jettySize=auto;html=1;entryX=1;entryY=0.5;entryDx=0;entryDy=0;" edge="1" parent="1" source="aNOmOmiapZUNBAK5stLF-134" target="aNOmOmiapZUNBAK5stLF-144">
          <mxGeometry relative="1" as="geometry" />
        </mxCell>
        <mxCell id="aNOmOmiapZUNBAK5stLF-134" value="" style="whiteSpace=wrap;html=1;aspect=fixed;" vertex="1" parent="1">
          <mxGeometry x="765" y="660" width="60" height="60" as="geometry" />
        </mxCell>
        <mxCell id="aNOmOmiapZUNBAK5stLF-135" value="&lt;span style=&quot;font-size: 16px;&quot;&gt;check&lt;br&gt;swap&lt;br&gt;&lt;/span&gt;" style="text;html=1;strokeColor=none;fillColor=none;align=center;verticalAlign=middle;whiteSpace=wrap;rounded=0;" vertex="1" parent="1">
          <mxGeometry x="770" y="665" width="50" height="50" as="geometry" />
        </mxCell>
        <mxCell id="aNOmOmiapZUNBAK5stLF-166" style="edgeStyle=orthogonalEdgeStyle;rounded=0;orthogonalLoop=1;jettySize=auto;html=1;entryX=0;entryY=0.5;entryDx=0;entryDy=0;" edge="1" parent="1" source="aNOmOmiapZUNBAK5stLF-136" target="aNOmOmiapZUNBAK5stLF-140">
          <mxGeometry relative="1" as="geometry" />
        </mxCell>
        <mxCell id="aNOmOmiapZUNBAK5stLF-136" value="" style="whiteSpace=wrap;html=1;aspect=fixed;" vertex="1" parent="1">
          <mxGeometry x="174" y="660" width="60" height="60" as="geometry" />
        </mxCell>
        <mxCell id="aNOmOmiapZUNBAK5stLF-137" value="&lt;span style=&quot;font-size: 16px;&quot;&gt;check&lt;br&gt;swap&lt;br&gt;&lt;/span&gt;" style="text;html=1;strokeColor=none;fillColor=none;align=center;verticalAlign=middle;whiteSpace=wrap;rounded=0;" vertex="1" parent="1">
          <mxGeometry x="179" y="665" width="50" height="50" as="geometry" />
        </mxCell>
        <mxCell id="aNOmOmiapZUNBAK5stLF-138" value="" style="whiteSpace=wrap;html=1;aspect=fixed;" vertex="1" parent="1">
          <mxGeometry x="272" y="600" width="60" height="60" as="geometry" />
        </mxCell>
        <mxCell id="aNOmOmiapZUNBAK5stLF-139" value="&lt;span style=&quot;font-size: 16px;&quot;&gt;check&lt;br&gt;swap&lt;br&gt;&lt;/span&gt;" style="text;html=1;strokeColor=none;fillColor=none;align=center;verticalAlign=middle;whiteSpace=wrap;rounded=0;" vertex="1" parent="1">
          <mxGeometry x="277" y="605" width="50" height="50" as="geometry" />
        </mxCell>
        <mxCell id="aNOmOmiapZUNBAK5stLF-140" value="" style="whiteSpace=wrap;html=1;aspect=fixed;" vertex="1" parent="1">
          <mxGeometry x="371" y="660" width="60" height="60" as="geometry" />
        </mxCell>
        <mxCell id="aNOmOmiapZUNBAK5stLF-141" value="&lt;span style=&quot;font-size: 16px;&quot;&gt;check&lt;br&gt;swap&lt;br&gt;&lt;/span&gt;" style="text;html=1;strokeColor=none;fillColor=none;align=center;verticalAlign=middle;whiteSpace=wrap;rounded=0;" vertex="1" parent="1">
          <mxGeometry x="376" y="665" width="50" height="50" as="geometry" />
        </mxCell>
        <mxCell id="aNOmOmiapZUNBAK5stLF-142" value="" style="whiteSpace=wrap;html=1;aspect=fixed;" vertex="1" parent="1">
          <mxGeometry x="469" y="600" width="60" height="60" as="geometry" />
        </mxCell>
        <mxCell id="aNOmOmiapZUNBAK5stLF-143" value="&lt;span style=&quot;font-size: 16px;&quot;&gt;check&lt;br&gt;swap&lt;br&gt;&lt;/span&gt;" style="text;html=1;strokeColor=none;fillColor=none;align=center;verticalAlign=middle;whiteSpace=wrap;rounded=0;" vertex="1" parent="1">
          <mxGeometry x="474" y="605" width="50" height="50" as="geometry" />
        </mxCell>
        <mxCell id="aNOmOmiapZUNBAK5stLF-144" value="" style="whiteSpace=wrap;html=1;aspect=fixed;" vertex="1" parent="1">
          <mxGeometry x="568" y="660" width="60" height="60" as="geometry" />
        </mxCell>
        <mxCell id="aNOmOmiapZUNBAK5stLF-145" value="&lt;span style=&quot;font-size: 16px;&quot;&gt;check&lt;br&gt;swap&lt;br&gt;&lt;/span&gt;" style="text;html=1;strokeColor=none;fillColor=none;align=center;verticalAlign=middle;whiteSpace=wrap;rounded=0;" vertex="1" parent="1">
          <mxGeometry x="573" y="665" width="50" height="50" as="geometry" />
        </mxCell>
        <mxCell id="aNOmOmiapZUNBAK5stLF-168" style="edgeStyle=orthogonalEdgeStyle;rounded=0;orthogonalLoop=1;jettySize=auto;html=1;entryX=1;entryY=0.5;entryDx=0;entryDy=0;" edge="1" parent="1" source="aNOmOmiapZUNBAK5stLF-146" target="aNOmOmiapZUNBAK5stLF-142">
          <mxGeometry relative="1" as="geometry" />
        </mxCell>
        <mxCell id="aNOmOmiapZUNBAK5stLF-146" value="" style="whiteSpace=wrap;html=1;aspect=fixed;" vertex="1" parent="1">
          <mxGeometry x="666" y="600" width="60" height="60" as="geometry" />
        </mxCell>
        <mxCell id="aNOmOmiapZUNBAK5stLF-147" value="&lt;span style=&quot;font-size: 16px;&quot;&gt;check&lt;br&gt;swap&lt;br&gt;&lt;/span&gt;" style="text;html=1;strokeColor=none;fillColor=none;align=center;verticalAlign=middle;whiteSpace=wrap;rounded=0;" vertex="1" parent="1">
          <mxGeometry x="671" y="605" width="50" height="50" as="geometry" />
        </mxCell>
        <mxCell id="aNOmOmiapZUNBAK5stLF-170" style="edgeStyle=orthogonalEdgeStyle;rounded=0;orthogonalLoop=1;jettySize=auto;html=1;entryX=0;entryY=0.5;entryDx=0;entryDy=0;" edge="1" parent="1" source="aNOmOmiapZUNBAK5stLF-171" target="aNOmOmiapZUNBAK5stLF-176">
          <mxGeometry relative="1" as="geometry" />
        </mxCell>
        <mxCell id="aNOmOmiapZUNBAK5stLF-171" value="" style="whiteSpace=wrap;html=1;aspect=fixed;" vertex="1" parent="1">
          <mxGeometry x="75" y="780" width="60" height="60" as="geometry" />
        </mxCell>
        <mxCell id="aNOmOmiapZUNBAK5stLF-172" value="&lt;span style=&quot;font-size: 16px;&quot;&gt;check&lt;br&gt;swap&lt;br&gt;&lt;/span&gt;" style="text;html=1;strokeColor=none;fillColor=none;align=center;verticalAlign=middle;whiteSpace=wrap;rounded=0;" vertex="1" parent="1">
          <mxGeometry x="80" y="785" width="50" height="50" as="geometry" />
        </mxCell>
        <mxCell id="aNOmOmiapZUNBAK5stLF-173" style="edgeStyle=orthogonalEdgeStyle;rounded=0;orthogonalLoop=1;jettySize=auto;html=1;entryX=1;entryY=0.5;entryDx=0;entryDy=0;" edge="1" parent="1" source="aNOmOmiapZUNBAK5stLF-174" target="aNOmOmiapZUNBAK5stLF-188">
          <mxGeometry relative="1" as="geometry" />
        </mxCell>
        <mxCell id="aNOmOmiapZUNBAK5stLF-174" value="" style="whiteSpace=wrap;html=1;aspect=fixed;" vertex="1" parent="1">
          <mxGeometry x="765" y="780" width="60" height="60" as="geometry" />
        </mxCell>
        <mxCell id="aNOmOmiapZUNBAK5stLF-175" value="&lt;span style=&quot;font-size: 16px;&quot;&gt;check&lt;br&gt;swap&lt;br&gt;&lt;/span&gt;" style="text;html=1;strokeColor=none;fillColor=none;align=center;verticalAlign=middle;whiteSpace=wrap;rounded=0;" vertex="1" parent="1">
          <mxGeometry x="770" y="785" width="50" height="50" as="geometry" />
        </mxCell>
        <mxCell id="aNOmOmiapZUNBAK5stLF-176" value="" style="whiteSpace=wrap;html=1;aspect=fixed;" vertex="1" parent="1">
          <mxGeometry x="174" y="780" width="60" height="60" as="geometry" />
        </mxCell>
        <mxCell id="aNOmOmiapZUNBAK5stLF-177" value="&lt;span style=&quot;font-size: 16px;&quot;&gt;check&lt;br&gt;swap&lt;br&gt;&lt;/span&gt;" style="text;html=1;strokeColor=none;fillColor=none;align=center;verticalAlign=middle;whiteSpace=wrap;rounded=0;" vertex="1" parent="1">
          <mxGeometry x="179" y="785" width="50" height="50" as="geometry" />
        </mxCell>
        <mxCell id="aNOmOmiapZUNBAK5stLF-178" value="" style="whiteSpace=wrap;html=1;aspect=fixed;" vertex="1" parent="1">
          <mxGeometry x="272" y="780" width="60" height="60" as="geometry" />
        </mxCell>
        <mxCell id="aNOmOmiapZUNBAK5stLF-179" value="&lt;span style=&quot;font-size: 16px;&quot;&gt;check&lt;br&gt;swap&lt;br&gt;&lt;/span&gt;" style="text;html=1;strokeColor=none;fillColor=none;align=center;verticalAlign=middle;whiteSpace=wrap;rounded=0;" vertex="1" parent="1">
          <mxGeometry x="277" y="785" width="50" height="50" as="geometry" />
        </mxCell>
        <mxCell id="aNOmOmiapZUNBAK5stLF-180" value="" style="whiteSpace=wrap;html=1;aspect=fixed;" vertex="1" parent="1">
          <mxGeometry x="371" y="780" width="60" height="60" as="geometry" />
        </mxCell>
        <mxCell id="aNOmOmiapZUNBAK5stLF-181" style="edgeStyle=orthogonalEdgeStyle;rounded=0;orthogonalLoop=1;jettySize=auto;html=1;entryX=1;entryY=0.5;entryDx=0;entryDy=0;exitX=1;exitY=0.5;exitDx=0;exitDy=0;" edge="1" parent="1" source="aNOmOmiapZUNBAK5stLF-178">
          <mxGeometry relative="1" as="geometry">
            <mxPoint x="370" y="810" as="targetPoint" />
          </mxGeometry>
        </mxCell>
        <mxCell id="aNOmOmiapZUNBAK5stLF-182" value="&lt;span style=&quot;font-size: 16px;&quot;&gt;check&lt;br&gt;swap&lt;br&gt;&lt;/span&gt;" style="text;html=1;strokeColor=none;fillColor=none;align=center;verticalAlign=middle;whiteSpace=wrap;rounded=0;" vertex="1" parent="1">
          <mxGeometry x="376" y="785" width="50" height="50" as="geometry" />
        </mxCell>
        <mxCell id="aNOmOmiapZUNBAK5stLF-183" style="edgeStyle=orthogonalEdgeStyle;rounded=0;orthogonalLoop=1;jettySize=auto;html=1;exitX=0;exitY=0.5;exitDx=0;exitDy=0;" edge="1" parent="1" source="aNOmOmiapZUNBAK5stLF-186" target="aNOmOmiapZUNBAK5stLF-184">
          <mxGeometry relative="1" as="geometry" />
        </mxCell>
        <mxCell id="aNOmOmiapZUNBAK5stLF-184" value="" style="whiteSpace=wrap;html=1;aspect=fixed;" vertex="1" parent="1">
          <mxGeometry x="469" y="780" width="60" height="60" as="geometry" />
        </mxCell>
        <mxCell id="aNOmOmiapZUNBAK5stLF-185" value="&lt;span style=&quot;font-size: 16px;&quot;&gt;check&lt;br&gt;swap&lt;br&gt;&lt;/span&gt;" style="text;html=1;strokeColor=none;fillColor=none;align=center;verticalAlign=middle;whiteSpace=wrap;rounded=0;" vertex="1" parent="1">
          <mxGeometry x="474" y="785" width="50" height="50" as="geometry" />
        </mxCell>
        <mxCell id="aNOmOmiapZUNBAK5stLF-186" value="" style="whiteSpace=wrap;html=1;aspect=fixed;" vertex="1" parent="1">
          <mxGeometry x="568" y="780" width="60" height="60" as="geometry" />
        </mxCell>
        <mxCell id="aNOmOmiapZUNBAK5stLF-187" value="&lt;span style=&quot;font-size: 16px;&quot;&gt;check&lt;br&gt;swap&lt;br&gt;&lt;/span&gt;" style="text;html=1;strokeColor=none;fillColor=none;align=center;verticalAlign=middle;whiteSpace=wrap;rounded=0;" vertex="1" parent="1">
          <mxGeometry x="573" y="785" width="50" height="50" as="geometry" />
        </mxCell>
        <mxCell id="aNOmOmiapZUNBAK5stLF-188" value="" style="whiteSpace=wrap;html=1;aspect=fixed;" vertex="1" parent="1">
          <mxGeometry x="666" y="780" width="60" height="60" as="geometry" />
        </mxCell>
        <mxCell id="aNOmOmiapZUNBAK5stLF-189" value="&lt;span style=&quot;font-size: 16px;&quot;&gt;check&lt;br&gt;swap&lt;br&gt;&lt;/span&gt;" style="text;html=1;strokeColor=none;fillColor=none;align=center;verticalAlign=middle;whiteSpace=wrap;rounded=0;" vertex="1" parent="1">
          <mxGeometry x="671" y="785" width="50" height="50" as="geometry" />
        </mxCell>
        <mxCell id="aNOmOmiapZUNBAK5stLF-220" style="edgeStyle=orthogonalEdgeStyle;rounded=0;orthogonalLoop=1;jettySize=auto;html=1;entryX=0;entryY=0.5;entryDx=0;entryDy=0;" edge="1" parent="1" source="aNOmOmiapZUNBAK5stLF-192" target="aNOmOmiapZUNBAK5stLF-212">
          <mxGeometry relative="1" as="geometry" />
        </mxCell>
        <mxCell id="aNOmOmiapZUNBAK5stLF-192" value="" style="whiteSpace=wrap;html=1;aspect=fixed;" vertex="1" parent="1">
          <mxGeometry x="75" y="900" width="60" height="60" as="geometry" />
        </mxCell>
        <mxCell id="aNOmOmiapZUNBAK5stLF-193" value="&lt;span style=&quot;font-size: 16px;&quot;&gt;check&lt;br&gt;swap&lt;br&gt;&lt;/span&gt;" style="text;html=1;strokeColor=none;fillColor=none;align=center;verticalAlign=middle;whiteSpace=wrap;rounded=0;" vertex="1" parent="1">
          <mxGeometry x="80" y="905" width="50" height="50" as="geometry" />
        </mxCell>
        <mxCell id="aNOmOmiapZUNBAK5stLF-221" style="edgeStyle=orthogonalEdgeStyle;rounded=0;orthogonalLoop=1;jettySize=auto;html=1;entryX=0;entryY=0.5;entryDx=0;entryDy=0;" edge="1" parent="1" source="aNOmOmiapZUNBAK5stLF-197" target="aNOmOmiapZUNBAK5stLF-214">
          <mxGeometry relative="1" as="geometry" />
        </mxCell>
        <mxCell id="aNOmOmiapZUNBAK5stLF-197" value="" style="whiteSpace=wrap;html=1;aspect=fixed;" vertex="1" parent="1">
          <mxGeometry x="174" y="960" width="60" height="60" as="geometry" />
        </mxCell>
        <mxCell id="aNOmOmiapZUNBAK5stLF-198" value="&lt;span style=&quot;font-size: 16px;&quot;&gt;check&lt;br&gt;swap&lt;br&gt;&lt;/span&gt;" style="text;html=1;strokeColor=none;fillColor=none;align=center;verticalAlign=middle;whiteSpace=wrap;rounded=0;" vertex="1" parent="1">
          <mxGeometry x="179" y="965" width="50" height="50" as="geometry" />
        </mxCell>
        <mxCell id="aNOmOmiapZUNBAK5stLF-222" style="edgeStyle=orthogonalEdgeStyle;rounded=0;orthogonalLoop=1;jettySize=auto;html=1;entryX=0;entryY=0.5;entryDx=0;entryDy=0;" edge="1" parent="1" source="aNOmOmiapZUNBAK5stLF-199" target="aNOmOmiapZUNBAK5stLF-216">
          <mxGeometry relative="1" as="geometry" />
        </mxCell>
        <mxCell id="aNOmOmiapZUNBAK5stLF-199" value="" style="whiteSpace=wrap;html=1;aspect=fixed;" vertex="1" parent="1">
          <mxGeometry x="272" y="1020" width="60" height="60" as="geometry" />
        </mxCell>
        <mxCell id="aNOmOmiapZUNBAK5stLF-200" value="&lt;span style=&quot;font-size: 16px;&quot;&gt;check&lt;br&gt;swap&lt;br&gt;&lt;/span&gt;" style="text;html=1;strokeColor=none;fillColor=none;align=center;verticalAlign=middle;whiteSpace=wrap;rounded=0;" vertex="1" parent="1">
          <mxGeometry x="277" y="1025" width="50" height="50" as="geometry" />
        </mxCell>
        <mxCell id="aNOmOmiapZUNBAK5stLF-223" style="edgeStyle=orthogonalEdgeStyle;rounded=0;orthogonalLoop=1;jettySize=auto;html=1;entryX=0;entryY=0.5;entryDx=0;entryDy=0;" edge="1" parent="1" source="aNOmOmiapZUNBAK5stLF-201" target="aNOmOmiapZUNBAK5stLF-218">
          <mxGeometry relative="1" as="geometry" />
        </mxCell>
        <mxCell id="aNOmOmiapZUNBAK5stLF-201" value="" style="whiteSpace=wrap;html=1;aspect=fixed;" vertex="1" parent="1">
          <mxGeometry x="371" y="1080" width="60" height="60" as="geometry" />
        </mxCell>
        <mxCell id="aNOmOmiapZUNBAK5stLF-203" value="&lt;span style=&quot;font-size: 16px;&quot;&gt;check&lt;br&gt;swap&lt;br&gt;&lt;/span&gt;" style="text;html=1;strokeColor=none;fillColor=none;align=center;verticalAlign=middle;whiteSpace=wrap;rounded=0;" vertex="1" parent="1">
          <mxGeometry x="376" y="1085" width="50" height="50" as="geometry" />
        </mxCell>
        <mxCell id="aNOmOmiapZUNBAK5stLF-212" value="" style="whiteSpace=wrap;html=1;aspect=fixed;" vertex="1" parent="1">
          <mxGeometry x="469" y="900" width="60" height="60" as="geometry" />
        </mxCell>
        <mxCell id="aNOmOmiapZUNBAK5stLF-213" value="&lt;span style=&quot;font-size: 16px;&quot;&gt;check&lt;br&gt;swap&lt;br&gt;&lt;/span&gt;" style="text;html=1;strokeColor=none;fillColor=none;align=center;verticalAlign=middle;whiteSpace=wrap;rounded=0;" vertex="1" parent="1">
          <mxGeometry x="474" y="905" width="50" height="50" as="geometry" />
        </mxCell>
        <mxCell id="aNOmOmiapZUNBAK5stLF-214" value="" style="whiteSpace=wrap;html=1;aspect=fixed;" vertex="1" parent="1">
          <mxGeometry x="568" y="960" width="60" height="60" as="geometry" />
        </mxCell>
        <mxCell id="aNOmOmiapZUNBAK5stLF-215" value="&lt;span style=&quot;font-size: 16px;&quot;&gt;check&lt;br&gt;swap&lt;br&gt;&lt;/span&gt;" style="text;html=1;strokeColor=none;fillColor=none;align=center;verticalAlign=middle;whiteSpace=wrap;rounded=0;" vertex="1" parent="1">
          <mxGeometry x="573" y="965" width="50" height="50" as="geometry" />
        </mxCell>
        <mxCell id="aNOmOmiapZUNBAK5stLF-216" value="" style="whiteSpace=wrap;html=1;aspect=fixed;" vertex="1" parent="1">
          <mxGeometry x="666" y="1020" width="60" height="60" as="geometry" />
        </mxCell>
        <mxCell id="aNOmOmiapZUNBAK5stLF-217" value="&lt;span style=&quot;font-size: 16px;&quot;&gt;check&lt;br&gt;swap&lt;br&gt;&lt;/span&gt;" style="text;html=1;strokeColor=none;fillColor=none;align=center;verticalAlign=middle;whiteSpace=wrap;rounded=0;" vertex="1" parent="1">
          <mxGeometry x="671" y="1025" width="50" height="50" as="geometry" />
        </mxCell>
        <mxCell id="aNOmOmiapZUNBAK5stLF-218" value="" style="whiteSpace=wrap;html=1;aspect=fixed;" vertex="1" parent="1">
          <mxGeometry x="765" y="1080" width="60" height="60" as="geometry" />
        </mxCell>
        <mxCell id="aNOmOmiapZUNBAK5stLF-219" value="&lt;span style=&quot;font-size: 16px;&quot;&gt;check&lt;br&gt;swap&lt;br&gt;&lt;/span&gt;" style="text;html=1;strokeColor=none;fillColor=none;align=center;verticalAlign=middle;whiteSpace=wrap;rounded=0;" vertex="1" parent="1">
          <mxGeometry x="770" y="1085" width="50" height="50" as="geometry" />
        </mxCell>
        <mxCell id="aNOmOmiapZUNBAK5stLF-224" value="" style="whiteSpace=wrap;html=1;aspect=fixed;" vertex="1" parent="1">
          <mxGeometry x="75" y="1200" width="60" height="60" as="geometry" />
        </mxCell>
        <mxCell id="aNOmOmiapZUNBAK5stLF-225" style="edgeStyle=orthogonalEdgeStyle;rounded=0;orthogonalLoop=1;jettySize=auto;html=1;exitX=1;exitY=0.5;exitDx=0;exitDy=0;" edge="1" parent="1" source="aNOmOmiapZUNBAK5stLF-224">
          <mxGeometry relative="1" as="geometry">
            <mxPoint x="270" y="1230" as="targetPoint" />
            <mxPoint x="150" y="1230" as="sourcePoint" />
          </mxGeometry>
        </mxCell>
        <mxCell id="aNOmOmiapZUNBAK5stLF-226" value="&lt;span style=&quot;font-size: 16px;&quot;&gt;check&lt;br&gt;swap&lt;br&gt;&lt;/span&gt;" style="text;html=1;strokeColor=none;fillColor=none;align=center;verticalAlign=middle;whiteSpace=wrap;rounded=0;" vertex="1" parent="1">
          <mxGeometry x="80" y="1205" width="50" height="50" as="geometry" />
        </mxCell>
        <mxCell id="aNOmOmiapZUNBAK5stLF-227" style="edgeStyle=orthogonalEdgeStyle;rounded=0;orthogonalLoop=1;jettySize=auto;html=1;exitX=1;exitY=0.5;exitDx=0;exitDy=0;" edge="1" parent="1" source="aNOmOmiapZUNBAK5stLF-239" target="aNOmOmiapZUNBAK5stLF-228">
          <mxGeometry relative="1" as="geometry" />
        </mxCell>
        <mxCell id="aNOmOmiapZUNBAK5stLF-228" value="" style="whiteSpace=wrap;html=1;aspect=fixed;" vertex="1" parent="1">
          <mxGeometry x="765" y="1260" width="60" height="60" as="geometry" />
        </mxCell>
        <mxCell id="aNOmOmiapZUNBAK5stLF-229" value="&lt;span style=&quot;font-size: 16px;&quot;&gt;check&lt;br&gt;swap&lt;br&gt;&lt;/span&gt;" style="text;html=1;strokeColor=none;fillColor=none;align=center;verticalAlign=middle;whiteSpace=wrap;rounded=0;" vertex="1" parent="1">
          <mxGeometry x="770" y="1265" width="50" height="50" as="geometry" />
        </mxCell>
        <mxCell id="aNOmOmiapZUNBAK5stLF-230" style="edgeStyle=orthogonalEdgeStyle;rounded=0;orthogonalLoop=1;jettySize=auto;html=1;entryX=0;entryY=0.5;entryDx=0;entryDy=0;" edge="1" parent="1" source="aNOmOmiapZUNBAK5stLF-231" target="aNOmOmiapZUNBAK5stLF-235">
          <mxGeometry relative="1" as="geometry" />
        </mxCell>
        <mxCell id="aNOmOmiapZUNBAK5stLF-231" value="" style="whiteSpace=wrap;html=1;aspect=fixed;" vertex="1" parent="1">
          <mxGeometry x="174" y="1260" width="60" height="60" as="geometry" />
        </mxCell>
        <mxCell id="aNOmOmiapZUNBAK5stLF-232" value="&lt;span style=&quot;font-size: 16px;&quot;&gt;check&lt;br&gt;swap&lt;br&gt;&lt;/span&gt;" style="text;html=1;strokeColor=none;fillColor=none;align=center;verticalAlign=middle;whiteSpace=wrap;rounded=0;" vertex="1" parent="1">
          <mxGeometry x="179" y="1265" width="50" height="50" as="geometry" />
        </mxCell>
        <mxCell id="aNOmOmiapZUNBAK5stLF-233" value="" style="whiteSpace=wrap;html=1;aspect=fixed;" vertex="1" parent="1">
          <mxGeometry x="272" y="1200" width="60" height="60" as="geometry" />
        </mxCell>
        <mxCell id="aNOmOmiapZUNBAK5stLF-234" value="&lt;span style=&quot;font-size: 16px;&quot;&gt;check&lt;br&gt;swap&lt;br&gt;&lt;/span&gt;" style="text;html=1;strokeColor=none;fillColor=none;align=center;verticalAlign=middle;whiteSpace=wrap;rounded=0;" vertex="1" parent="1">
          <mxGeometry x="277" y="1205" width="50" height="50" as="geometry" />
        </mxCell>
        <mxCell id="aNOmOmiapZUNBAK5stLF-235" value="" style="whiteSpace=wrap;html=1;aspect=fixed;" vertex="1" parent="1">
          <mxGeometry x="371" y="1260" width="60" height="60" as="geometry" />
        </mxCell>
        <mxCell id="aNOmOmiapZUNBAK5stLF-236" value="&lt;span style=&quot;font-size: 16px;&quot;&gt;check&lt;br&gt;swap&lt;br&gt;&lt;/span&gt;" style="text;html=1;strokeColor=none;fillColor=none;align=center;verticalAlign=middle;whiteSpace=wrap;rounded=0;" vertex="1" parent="1">
          <mxGeometry x="376" y="1265" width="50" height="50" as="geometry" />
        </mxCell>
        <mxCell id="aNOmOmiapZUNBAK5stLF-237" value="" style="whiteSpace=wrap;html=1;aspect=fixed;" vertex="1" parent="1">
          <mxGeometry x="469" y="1200" width="60" height="60" as="geometry" />
        </mxCell>
        <mxCell id="aNOmOmiapZUNBAK5stLF-238" value="&lt;span style=&quot;font-size: 16px;&quot;&gt;check&lt;br&gt;swap&lt;br&gt;&lt;/span&gt;" style="text;html=1;strokeColor=none;fillColor=none;align=center;verticalAlign=middle;whiteSpace=wrap;rounded=0;" vertex="1" parent="1">
          <mxGeometry x="474" y="1205" width="50" height="50" as="geometry" />
        </mxCell>
        <mxCell id="aNOmOmiapZUNBAK5stLF-239" value="" style="whiteSpace=wrap;html=1;aspect=fixed;" vertex="1" parent="1">
          <mxGeometry x="568" y="1260" width="60" height="60" as="geometry" />
        </mxCell>
        <mxCell id="aNOmOmiapZUNBAK5stLF-240" value="&lt;span style=&quot;font-size: 16px;&quot;&gt;check&lt;br&gt;swap&lt;br&gt;&lt;/span&gt;" style="text;html=1;strokeColor=none;fillColor=none;align=center;verticalAlign=middle;whiteSpace=wrap;rounded=0;" vertex="1" parent="1">
          <mxGeometry x="573" y="1265" width="50" height="50" as="geometry" />
        </mxCell>
        <mxCell id="aNOmOmiapZUNBAK5stLF-241" style="edgeStyle=orthogonalEdgeStyle;rounded=0;orthogonalLoop=1;jettySize=auto;html=1;exitX=1;exitY=0.5;exitDx=0;exitDy=0;" edge="1" parent="1" source="aNOmOmiapZUNBAK5stLF-237" target="aNOmOmiapZUNBAK5stLF-242">
          <mxGeometry relative="1" as="geometry" />
        </mxCell>
        <mxCell id="aNOmOmiapZUNBAK5stLF-242" value="" style="whiteSpace=wrap;html=1;aspect=fixed;" vertex="1" parent="1">
          <mxGeometry x="666" y="1200" width="60" height="60" as="geometry" />
        </mxCell>
        <mxCell id="aNOmOmiapZUNBAK5stLF-243" value="&lt;span style=&quot;font-size: 16px;&quot;&gt;check&lt;br&gt;swap&lt;br&gt;&lt;/span&gt;" style="text;html=1;strokeColor=none;fillColor=none;align=center;verticalAlign=middle;whiteSpace=wrap;rounded=0;" vertex="1" parent="1">
          <mxGeometry x="671" y="1205" width="50" height="50" as="geometry" />
        </mxCell>
        <mxCell id="aNOmOmiapZUNBAK5stLF-244" style="edgeStyle=orthogonalEdgeStyle;rounded=0;orthogonalLoop=1;jettySize=auto;html=1;entryX=0;entryY=0.5;entryDx=0;entryDy=0;" edge="1" parent="1" source="aNOmOmiapZUNBAK5stLF-245" target="aNOmOmiapZUNBAK5stLF-250">
          <mxGeometry relative="1" as="geometry" />
        </mxCell>
        <mxCell id="aNOmOmiapZUNBAK5stLF-245" value="" style="whiteSpace=wrap;html=1;aspect=fixed;" vertex="1" parent="1">
          <mxGeometry x="75" y="1380" width="60" height="60" as="geometry" />
        </mxCell>
        <mxCell id="aNOmOmiapZUNBAK5stLF-246" value="&lt;span style=&quot;font-size: 16px;&quot;&gt;check&lt;br&gt;swap&lt;br&gt;&lt;/span&gt;" style="text;html=1;strokeColor=none;fillColor=none;align=center;verticalAlign=middle;whiteSpace=wrap;rounded=0;" vertex="1" parent="1">
          <mxGeometry x="80" y="1385" width="50" height="50" as="geometry" />
        </mxCell>
        <mxCell id="aNOmOmiapZUNBAK5stLF-247" style="edgeStyle=orthogonalEdgeStyle;rounded=0;orthogonalLoop=1;jettySize=auto;html=1;exitX=1;exitY=0.5;exitDx=0;exitDy=0;" edge="1" parent="1" source="aNOmOmiapZUNBAK5stLF-262" target="aNOmOmiapZUNBAK5stLF-248">
          <mxGeometry relative="1" as="geometry" />
        </mxCell>
        <mxCell id="aNOmOmiapZUNBAK5stLF-248" value="" style="whiteSpace=wrap;html=1;aspect=fixed;" vertex="1" parent="1">
          <mxGeometry x="765" y="1380" width="60" height="60" as="geometry" />
        </mxCell>
        <mxCell id="aNOmOmiapZUNBAK5stLF-249" value="&lt;span style=&quot;font-size: 16px;&quot;&gt;check&lt;br&gt;swap&lt;br&gt;&lt;/span&gt;" style="text;html=1;strokeColor=none;fillColor=none;align=center;verticalAlign=middle;whiteSpace=wrap;rounded=0;" vertex="1" parent="1">
          <mxGeometry x="770" y="1385" width="50" height="50" as="geometry" />
        </mxCell>
        <mxCell id="aNOmOmiapZUNBAK5stLF-250" value="" style="whiteSpace=wrap;html=1;aspect=fixed;" vertex="1" parent="1">
          <mxGeometry x="174" y="1380" width="60" height="60" as="geometry" />
        </mxCell>
        <mxCell id="aNOmOmiapZUNBAK5stLF-251" value="&lt;span style=&quot;font-size: 16px;&quot;&gt;check&lt;br&gt;swap&lt;br&gt;&lt;/span&gt;" style="text;html=1;strokeColor=none;fillColor=none;align=center;verticalAlign=middle;whiteSpace=wrap;rounded=0;" vertex="1" parent="1">
          <mxGeometry x="179" y="1385" width="50" height="50" as="geometry" />
        </mxCell>
        <mxCell id="aNOmOmiapZUNBAK5stLF-252" value="" style="whiteSpace=wrap;html=1;aspect=fixed;" vertex="1" parent="1">
          <mxGeometry x="272" y="1380" width="60" height="60" as="geometry" />
        </mxCell>
        <mxCell id="aNOmOmiapZUNBAK5stLF-253" value="&lt;span style=&quot;font-size: 16px;&quot;&gt;check&lt;br&gt;swap&lt;br&gt;&lt;/span&gt;" style="text;html=1;strokeColor=none;fillColor=none;align=center;verticalAlign=middle;whiteSpace=wrap;rounded=0;" vertex="1" parent="1">
          <mxGeometry x="277" y="1385" width="50" height="50" as="geometry" />
        </mxCell>
        <mxCell id="aNOmOmiapZUNBAK5stLF-254" value="" style="whiteSpace=wrap;html=1;aspect=fixed;" vertex="1" parent="1">
          <mxGeometry x="371" y="1380" width="60" height="60" as="geometry" />
        </mxCell>
        <mxCell id="aNOmOmiapZUNBAK5stLF-255" style="edgeStyle=orthogonalEdgeStyle;rounded=0;orthogonalLoop=1;jettySize=auto;html=1;entryX=1;entryY=0.5;entryDx=0;entryDy=0;exitX=1;exitY=0.5;exitDx=0;exitDy=0;" edge="1" parent="1" source="aNOmOmiapZUNBAK5stLF-252">
          <mxGeometry relative="1" as="geometry">
            <mxPoint x="370" y="1410" as="targetPoint" />
          </mxGeometry>
        </mxCell>
        <mxCell id="aNOmOmiapZUNBAK5stLF-256" value="&lt;span style=&quot;font-size: 16px;&quot;&gt;check&lt;br&gt;swap&lt;br&gt;&lt;/span&gt;" style="text;html=1;strokeColor=none;fillColor=none;align=center;verticalAlign=middle;whiteSpace=wrap;rounded=0;" vertex="1" parent="1">
          <mxGeometry x="376" y="1385" width="50" height="50" as="geometry" />
        </mxCell>
        <mxCell id="aNOmOmiapZUNBAK5stLF-257" style="edgeStyle=orthogonalEdgeStyle;rounded=0;orthogonalLoop=1;jettySize=auto;html=1;entryX=0;entryY=0.5;entryDx=0;entryDy=0;" edge="1" parent="1" source="aNOmOmiapZUNBAK5stLF-258" target="aNOmOmiapZUNBAK5stLF-260">
          <mxGeometry relative="1" as="geometry" />
        </mxCell>
        <mxCell id="aNOmOmiapZUNBAK5stLF-258" value="" style="whiteSpace=wrap;html=1;aspect=fixed;" vertex="1" parent="1">
          <mxGeometry x="469" y="1380" width="60" height="60" as="geometry" />
        </mxCell>
        <mxCell id="aNOmOmiapZUNBAK5stLF-259" value="&lt;span style=&quot;font-size: 16px;&quot;&gt;check&lt;br&gt;swap&lt;br&gt;&lt;/span&gt;" style="text;html=1;strokeColor=none;fillColor=none;align=center;verticalAlign=middle;whiteSpace=wrap;rounded=0;" vertex="1" parent="1">
          <mxGeometry x="474" y="1385" width="50" height="50" as="geometry" />
        </mxCell>
        <mxCell id="aNOmOmiapZUNBAK5stLF-260" value="" style="whiteSpace=wrap;html=1;aspect=fixed;" vertex="1" parent="1">
          <mxGeometry x="568" y="1380" width="60" height="60" as="geometry" />
        </mxCell>
        <mxCell id="aNOmOmiapZUNBAK5stLF-261" value="&lt;span style=&quot;font-size: 16px;&quot;&gt;check&lt;br&gt;swap&lt;br&gt;&lt;/span&gt;" style="text;html=1;strokeColor=none;fillColor=none;align=center;verticalAlign=middle;whiteSpace=wrap;rounded=0;" vertex="1" parent="1">
          <mxGeometry x="573" y="1385" width="50" height="50" as="geometry" />
        </mxCell>
        <mxCell id="aNOmOmiapZUNBAK5stLF-262" value="" style="whiteSpace=wrap;html=1;aspect=fixed;" vertex="1" parent="1">
          <mxGeometry x="666" y="1380" width="60" height="60" as="geometry" />
        </mxCell>
        <mxCell id="aNOmOmiapZUNBAK5stLF-263" value="&lt;span style=&quot;font-size: 16px;&quot;&gt;check&lt;br&gt;swap&lt;br&gt;&lt;/span&gt;" style="text;html=1;strokeColor=none;fillColor=none;align=center;verticalAlign=middle;whiteSpace=wrap;rounded=0;" vertex="1" parent="1">
          <mxGeometry x="671" y="1385" width="50" height="50" as="geometry" />
        </mxCell>
        <mxCell id="aNOmOmiapZUNBAK5stLF-265" value="&lt;span style=&quot;font-size: 16px;&quot;&gt;local&lt;br&gt;sort&lt;br&gt;&lt;/span&gt;" style="text;html=1;strokeColor=none;fillColor=none;align=center;verticalAlign=middle;whiteSpace=wrap;rounded=0;" vertex="1" parent="1">
          <mxGeometry x="179" y="730" width="50" height="50" as="geometry" />
        </mxCell>
        <mxCell id="aNOmOmiapZUNBAK5stLF-266" value="&lt;span style=&quot;font-size: 16px;&quot;&gt;local&lt;br&gt;sort&lt;br&gt;&lt;/span&gt;" style="text;html=1;strokeColor=none;fillColor=none;align=center;verticalAlign=middle;whiteSpace=wrap;rounded=0;" vertex="1" parent="1">
          <mxGeometry x="80" y="730" width="50" height="50" as="geometry" />
        </mxCell>
        <mxCell id="aNOmOmiapZUNBAK5stLF-267" value="&lt;span style=&quot;font-size: 16px;&quot;&gt;local&lt;br&gt;sort&lt;br&gt;&lt;/span&gt;" style="text;html=1;strokeColor=none;fillColor=none;align=center;verticalAlign=middle;whiteSpace=wrap;rounded=0;" vertex="1" parent="1">
          <mxGeometry x="770" y="730" width="50" height="50" as="geometry" />
        </mxCell>
        <mxCell id="aNOmOmiapZUNBAK5stLF-268" value="&lt;span style=&quot;font-size: 16px;&quot;&gt;local&lt;br&gt;sort&lt;br&gt;&lt;/span&gt;" style="text;html=1;strokeColor=none;fillColor=none;align=center;verticalAlign=middle;whiteSpace=wrap;rounded=0;" vertex="1" parent="1">
          <mxGeometry x="277" y="730" width="50" height="50" as="geometry" />
        </mxCell>
        <mxCell id="aNOmOmiapZUNBAK5stLF-271" value="&lt;span style=&quot;font-size: 16px;&quot;&gt;local&lt;br&gt;sort&lt;br&gt;&lt;/span&gt;" style="text;html=1;strokeColor=none;fillColor=none;align=center;verticalAlign=middle;whiteSpace=wrap;rounded=0;" vertex="1" parent="1">
          <mxGeometry x="376" y="730" width="50" height="50" as="geometry" />
        </mxCell>
        <mxCell id="aNOmOmiapZUNBAK5stLF-272" value="&lt;span style=&quot;font-size: 16px;&quot;&gt;local&lt;br&gt;sort&lt;br&gt;&lt;/span&gt;" style="text;html=1;strokeColor=none;fillColor=none;align=center;verticalAlign=middle;whiteSpace=wrap;rounded=0;" vertex="1" parent="1">
          <mxGeometry x="475" y="730" width="50" height="50" as="geometry" />
        </mxCell>
        <mxCell id="aNOmOmiapZUNBAK5stLF-273" value="&lt;span style=&quot;font-size: 16px;&quot;&gt;local&lt;br&gt;sort&lt;br&gt;&lt;/span&gt;" style="text;html=1;strokeColor=none;fillColor=none;align=center;verticalAlign=middle;whiteSpace=wrap;rounded=0;" vertex="1" parent="1">
          <mxGeometry x="573" y="730" width="50" height="50" as="geometry" />
        </mxCell>
        <mxCell id="aNOmOmiapZUNBAK5stLF-274" value="&lt;span style=&quot;font-size: 16px;&quot;&gt;local&lt;br&gt;sort&lt;br&gt;&lt;/span&gt;" style="text;html=1;strokeColor=none;fillColor=none;align=center;verticalAlign=middle;whiteSpace=wrap;rounded=0;" vertex="1" parent="1">
          <mxGeometry x="670" y="730" width="50" height="50" as="geometry" />
        </mxCell>
        <mxCell id="aNOmOmiapZUNBAK5stLF-275" value="&lt;span style=&quot;font-size: 16px;&quot;&gt;local&lt;br&gt;sort&lt;br&gt;&lt;/span&gt;" style="text;html=1;strokeColor=none;fillColor=none;align=center;verticalAlign=middle;whiteSpace=wrap;rounded=0;" vertex="1" parent="1">
          <mxGeometry x="179" y="1150" width="50" height="50" as="geometry" />
        </mxCell>
        <mxCell id="aNOmOmiapZUNBAK5stLF-276" value="&lt;span style=&quot;font-size: 16px;&quot;&gt;local&lt;br&gt;sort&lt;br&gt;&lt;/span&gt;" style="text;html=1;strokeColor=none;fillColor=none;align=center;verticalAlign=middle;whiteSpace=wrap;rounded=0;" vertex="1" parent="1">
          <mxGeometry x="80" y="1150" width="50" height="50" as="geometry" />
        </mxCell>
        <mxCell id="aNOmOmiapZUNBAK5stLF-277" value="&lt;span style=&quot;font-size: 16px;&quot;&gt;local&lt;br&gt;sort&lt;br&gt;&lt;/span&gt;" style="text;html=1;strokeColor=none;fillColor=none;align=center;verticalAlign=middle;whiteSpace=wrap;rounded=0;" vertex="1" parent="1">
          <mxGeometry x="770" y="1150" width="50" height="50" as="geometry" />
        </mxCell>
        <mxCell id="aNOmOmiapZUNBAK5stLF-278" value="&lt;span style=&quot;font-size: 16px;&quot;&gt;local&lt;br&gt;sort&lt;br&gt;&lt;/span&gt;" style="text;html=1;strokeColor=none;fillColor=none;align=center;verticalAlign=middle;whiteSpace=wrap;rounded=0;" vertex="1" parent="1">
          <mxGeometry x="277" y="1150" width="50" height="50" as="geometry" />
        </mxCell>
        <mxCell id="aNOmOmiapZUNBAK5stLF-279" value="&lt;span style=&quot;font-size: 16px;&quot;&gt;local&lt;br&gt;sort&lt;br&gt;&lt;/span&gt;" style="text;html=1;strokeColor=none;fillColor=none;align=center;verticalAlign=middle;whiteSpace=wrap;rounded=0;" vertex="1" parent="1">
          <mxGeometry x="376" y="1150" width="50" height="50" as="geometry" />
        </mxCell>
        <mxCell id="aNOmOmiapZUNBAK5stLF-280" value="&lt;span style=&quot;font-size: 16px;&quot;&gt;local&lt;br&gt;sort&lt;br&gt;&lt;/span&gt;" style="text;html=1;strokeColor=none;fillColor=none;align=center;verticalAlign=middle;whiteSpace=wrap;rounded=0;" vertex="1" parent="1">
          <mxGeometry x="475" y="1150" width="50" height="50" as="geometry" />
        </mxCell>
        <mxCell id="aNOmOmiapZUNBAK5stLF-281" value="&lt;span style=&quot;font-size: 16px;&quot;&gt;local&lt;br&gt;sort&lt;br&gt;&lt;/span&gt;" style="text;html=1;strokeColor=none;fillColor=none;align=center;verticalAlign=middle;whiteSpace=wrap;rounded=0;" vertex="1" parent="1">
          <mxGeometry x="573" y="1150" width="50" height="50" as="geometry" />
        </mxCell>
        <mxCell id="aNOmOmiapZUNBAK5stLF-282" value="&lt;span style=&quot;font-size: 16px;&quot;&gt;local&lt;br&gt;sort&lt;br&gt;&lt;/span&gt;" style="text;html=1;strokeColor=none;fillColor=none;align=center;verticalAlign=middle;whiteSpace=wrap;rounded=0;" vertex="1" parent="1">
          <mxGeometry x="670" y="1150" width="50" height="50" as="geometry" />
        </mxCell>
        <mxCell id="aNOmOmiapZUNBAK5stLF-283" value="&lt;span style=&quot;font-size: 16px;&quot;&gt;local&lt;br&gt;sort&lt;br&gt;&lt;/span&gt;" style="text;html=1;strokeColor=none;fillColor=none;align=center;verticalAlign=middle;whiteSpace=wrap;rounded=0;" vertex="1" parent="1">
          <mxGeometry x="179" y="550" width="50" height="50" as="geometry" />
        </mxCell>
        <mxCell id="aNOmOmiapZUNBAK5stLF-284" value="&lt;span style=&quot;font-size: 16px;&quot;&gt;local&lt;br&gt;sort&lt;br&gt;&lt;/span&gt;" style="text;html=1;strokeColor=none;fillColor=none;align=center;verticalAlign=middle;whiteSpace=wrap;rounded=0;" vertex="1" parent="1">
          <mxGeometry x="80" y="550" width="50" height="50" as="geometry" />
        </mxCell>
        <mxCell id="aNOmOmiapZUNBAK5stLF-285" value="&lt;span style=&quot;font-size: 16px;&quot;&gt;local&lt;br&gt;sort&lt;br&gt;&lt;/span&gt;" style="text;html=1;strokeColor=none;fillColor=none;align=center;verticalAlign=middle;whiteSpace=wrap;rounded=0;" vertex="1" parent="1">
          <mxGeometry x="770" y="550" width="50" height="50" as="geometry" />
        </mxCell>
        <mxCell id="aNOmOmiapZUNBAK5stLF-286" value="&lt;span style=&quot;font-size: 16px;&quot;&gt;local&lt;br&gt;sort&lt;br&gt;&lt;/span&gt;" style="text;html=1;strokeColor=none;fillColor=none;align=center;verticalAlign=middle;whiteSpace=wrap;rounded=0;" vertex="1" parent="1">
          <mxGeometry x="277" y="550" width="50" height="50" as="geometry" />
        </mxCell>
        <mxCell id="aNOmOmiapZUNBAK5stLF-287" value="&lt;span style=&quot;font-size: 16px;&quot;&gt;local&lt;br&gt;sort&lt;br&gt;&lt;/span&gt;" style="text;html=1;strokeColor=none;fillColor=none;align=center;verticalAlign=middle;whiteSpace=wrap;rounded=0;" vertex="1" parent="1">
          <mxGeometry x="376" y="550" width="50" height="50" as="geometry" />
        </mxCell>
        <mxCell id="aNOmOmiapZUNBAK5stLF-288" value="&lt;span style=&quot;font-size: 16px;&quot;&gt;local&lt;br&gt;sort&lt;br&gt;&lt;/span&gt;" style="text;html=1;strokeColor=none;fillColor=none;align=center;verticalAlign=middle;whiteSpace=wrap;rounded=0;" vertex="1" parent="1">
          <mxGeometry x="475" y="550" width="50" height="50" as="geometry" />
        </mxCell>
        <mxCell id="aNOmOmiapZUNBAK5stLF-289" value="&lt;span style=&quot;font-size: 16px;&quot;&gt;local&lt;br&gt;sort&lt;br&gt;&lt;/span&gt;" style="text;html=1;strokeColor=none;fillColor=none;align=center;verticalAlign=middle;whiteSpace=wrap;rounded=0;" vertex="1" parent="1">
          <mxGeometry x="573" y="550" width="50" height="50" as="geometry" />
        </mxCell>
        <mxCell id="aNOmOmiapZUNBAK5stLF-290" value="&lt;span style=&quot;font-size: 16px;&quot;&gt;local&lt;br&gt;sort&lt;br&gt;&lt;/span&gt;" style="text;html=1;strokeColor=none;fillColor=none;align=center;verticalAlign=middle;whiteSpace=wrap;rounded=0;" vertex="1" parent="1">
          <mxGeometry x="670" y="550" width="50" height="50" as="geometry" />
        </mxCell>
        <mxCell id="aNOmOmiapZUNBAK5stLF-291" value="&lt;span style=&quot;font-size: 16px;&quot;&gt;local&lt;br&gt;sort&lt;br&gt;&lt;/span&gt;" style="text;html=1;strokeColor=none;fillColor=none;align=center;verticalAlign=middle;whiteSpace=wrap;rounded=0;" vertex="1" parent="1">
          <mxGeometry x="179" y="1330" width="50" height="50" as="geometry" />
        </mxCell>
        <mxCell id="aNOmOmiapZUNBAK5stLF-292" value="&lt;span style=&quot;font-size: 16px;&quot;&gt;local&lt;br&gt;sort&lt;br&gt;&lt;/span&gt;" style="text;html=1;strokeColor=none;fillColor=none;align=center;verticalAlign=middle;whiteSpace=wrap;rounded=0;" vertex="1" parent="1">
          <mxGeometry x="80" y="1330" width="50" height="50" as="geometry" />
        </mxCell>
        <mxCell id="aNOmOmiapZUNBAK5stLF-293" value="&lt;span style=&quot;font-size: 16px;&quot;&gt;local&lt;br&gt;sort&lt;br&gt;&lt;/span&gt;" style="text;html=1;strokeColor=none;fillColor=none;align=center;verticalAlign=middle;whiteSpace=wrap;rounded=0;" vertex="1" parent="1">
          <mxGeometry x="770" y="1330" width="50" height="50" as="geometry" />
        </mxCell>
        <mxCell id="aNOmOmiapZUNBAK5stLF-294" value="&lt;span style=&quot;font-size: 16px;&quot;&gt;local&lt;br&gt;sort&lt;br&gt;&lt;/span&gt;" style="text;html=1;strokeColor=none;fillColor=none;align=center;verticalAlign=middle;whiteSpace=wrap;rounded=0;" vertex="1" parent="1">
          <mxGeometry x="277" y="1330" width="50" height="50" as="geometry" />
        </mxCell>
        <mxCell id="aNOmOmiapZUNBAK5stLF-295" value="&lt;span style=&quot;font-size: 16px;&quot;&gt;local&lt;br&gt;sort&lt;br&gt;&lt;/span&gt;" style="text;html=1;strokeColor=none;fillColor=none;align=center;verticalAlign=middle;whiteSpace=wrap;rounded=0;" vertex="1" parent="1">
          <mxGeometry x="376" y="1330" width="50" height="50" as="geometry" />
        </mxCell>
        <mxCell id="aNOmOmiapZUNBAK5stLF-296" value="&lt;span style=&quot;font-size: 16px;&quot;&gt;local&lt;br&gt;sort&lt;br&gt;&lt;/span&gt;" style="text;html=1;strokeColor=none;fillColor=none;align=center;verticalAlign=middle;whiteSpace=wrap;rounded=0;" vertex="1" parent="1">
          <mxGeometry x="475" y="1330" width="50" height="50" as="geometry" />
        </mxCell>
        <mxCell id="aNOmOmiapZUNBAK5stLF-297" value="&lt;span style=&quot;font-size: 16px;&quot;&gt;local&lt;br&gt;sort&lt;br&gt;&lt;/span&gt;" style="text;html=1;strokeColor=none;fillColor=none;align=center;verticalAlign=middle;whiteSpace=wrap;rounded=0;" vertex="1" parent="1">
          <mxGeometry x="573" y="1330" width="50" height="50" as="geometry" />
        </mxCell>
        <mxCell id="aNOmOmiapZUNBAK5stLF-298" value="&lt;span style=&quot;font-size: 16px;&quot;&gt;local&lt;br&gt;sort&lt;br&gt;&lt;/span&gt;" style="text;html=1;strokeColor=none;fillColor=none;align=center;verticalAlign=middle;whiteSpace=wrap;rounded=0;" vertex="1" parent="1">
          <mxGeometry x="670" y="1330" width="50" height="50" as="geometry" />
        </mxCell>
        <mxCell id="aNOmOmiapZUNBAK5stLF-299" value="&lt;span style=&quot;font-size: 16px;&quot;&gt;local&lt;br&gt;sort&lt;br&gt;&lt;/span&gt;" style="text;html=1;strokeColor=none;fillColor=none;align=center;verticalAlign=middle;whiteSpace=wrap;rounded=0;" vertex="1" parent="1">
          <mxGeometry x="179" y="1450" width="50" height="50" as="geometry" />
        </mxCell>
        <mxCell id="aNOmOmiapZUNBAK5stLF-300" value="&lt;span style=&quot;font-size: 16px;&quot;&gt;local&lt;br&gt;sort&lt;br&gt;&lt;/span&gt;" style="text;html=1;strokeColor=none;fillColor=none;align=center;verticalAlign=middle;whiteSpace=wrap;rounded=0;" vertex="1" parent="1">
          <mxGeometry x="80" y="1450" width="50" height="50" as="geometry" />
        </mxCell>
        <mxCell id="aNOmOmiapZUNBAK5stLF-301" value="&lt;span style=&quot;font-size: 16px;&quot;&gt;local&lt;br&gt;sort&lt;br&gt;&lt;/span&gt;" style="text;html=1;strokeColor=none;fillColor=none;align=center;verticalAlign=middle;whiteSpace=wrap;rounded=0;" vertex="1" parent="1">
          <mxGeometry x="770" y="1450" width="50" height="50" as="geometry" />
        </mxCell>
        <mxCell id="aNOmOmiapZUNBAK5stLF-302" value="&lt;span style=&quot;font-size: 16px;&quot;&gt;local&lt;br&gt;sort&lt;br&gt;&lt;/span&gt;" style="text;html=1;strokeColor=none;fillColor=none;align=center;verticalAlign=middle;whiteSpace=wrap;rounded=0;" vertex="1" parent="1">
          <mxGeometry x="277" y="1450" width="50" height="50" as="geometry" />
        </mxCell>
        <mxCell id="aNOmOmiapZUNBAK5stLF-303" value="&lt;span style=&quot;font-size: 16px;&quot;&gt;local&lt;br&gt;sort&lt;br&gt;&lt;/span&gt;" style="text;html=1;strokeColor=none;fillColor=none;align=center;verticalAlign=middle;whiteSpace=wrap;rounded=0;" vertex="1" parent="1">
          <mxGeometry x="376" y="1450" width="50" height="50" as="geometry" />
        </mxCell>
        <mxCell id="aNOmOmiapZUNBAK5stLF-304" value="&lt;span style=&quot;font-size: 16px;&quot;&gt;local&lt;br&gt;sort&lt;br&gt;&lt;/span&gt;" style="text;html=1;strokeColor=none;fillColor=none;align=center;verticalAlign=middle;whiteSpace=wrap;rounded=0;" vertex="1" parent="1">
          <mxGeometry x="475" y="1450" width="50" height="50" as="geometry" />
        </mxCell>
        <mxCell id="aNOmOmiapZUNBAK5stLF-305" value="&lt;span style=&quot;font-size: 16px;&quot;&gt;local&lt;br&gt;sort&lt;br&gt;&lt;/span&gt;" style="text;html=1;strokeColor=none;fillColor=none;align=center;verticalAlign=middle;whiteSpace=wrap;rounded=0;" vertex="1" parent="1">
          <mxGeometry x="573" y="1450" width="50" height="50" as="geometry" />
        </mxCell>
        <mxCell id="aNOmOmiapZUNBAK5stLF-306" value="&lt;span style=&quot;font-size: 16px;&quot;&gt;local&lt;br&gt;sort&lt;br&gt;&lt;/span&gt;" style="text;html=1;strokeColor=none;fillColor=none;align=center;verticalAlign=middle;whiteSpace=wrap;rounded=0;" vertex="1" parent="1">
          <mxGeometry x="670" y="1450" width="50" height="50" as="geometry" />
        </mxCell>
        <mxCell id="aNOmOmiapZUNBAK5stLF-308" value="&lt;font style=&quot;font-size: 24px;&quot;&gt;buffer&lt;/font&gt;" style="rounded=0;whiteSpace=wrap;html=1;" vertex="1" parent="1">
          <mxGeometry x="75" y="1600" width="750" height="60" as="geometry" />
        </mxCell>
        <mxCell id="aNOmOmiapZUNBAK5stLF-311" value="" style="endArrow=classic;html=1;rounded=0;exitX=0.5;exitY=1;exitDx=0;exitDy=0;entryX=0.5;entryY=0;entryDx=0;entryDy=0;" edge="1" parent="1" source="aNOmOmiapZUNBAK5stLF-300" target="aNOmOmiapZUNBAK5stLF-308">
          <mxGeometry width="50" height="50" relative="1" as="geometry">
            <mxPoint x="500" y="1600" as="sourcePoint" />
            <mxPoint x="550" y="1550" as="targetPoint" />
          </mxGeometry>
        </mxCell>
        <mxCell id="aNOmOmiapZUNBAK5stLF-312" value="" style="endArrow=classic;html=1;rounded=0;exitX=0.5;exitY=1;exitDx=0;exitDy=0;entryX=0.5;entryY=0;entryDx=0;entryDy=0;" edge="1" parent="1" source="aNOmOmiapZUNBAK5stLF-299" target="aNOmOmiapZUNBAK5stLF-308">
          <mxGeometry width="50" height="50" relative="1" as="geometry">
            <mxPoint x="115" y="1510" as="sourcePoint" />
            <mxPoint x="460" y="1610" as="targetPoint" />
          </mxGeometry>
        </mxCell>
        <mxCell id="aNOmOmiapZUNBAK5stLF-313" value="" style="endArrow=classic;html=1;rounded=0;exitX=0.5;exitY=1;exitDx=0;exitDy=0;entryX=0.5;entryY=0;entryDx=0;entryDy=0;" edge="1" parent="1" source="aNOmOmiapZUNBAK5stLF-302" target="aNOmOmiapZUNBAK5stLF-308">
          <mxGeometry width="50" height="50" relative="1" as="geometry">
            <mxPoint x="125" y="1520" as="sourcePoint" />
            <mxPoint x="450" y="1580" as="targetPoint" />
          </mxGeometry>
        </mxCell>
        <mxCell id="aNOmOmiapZUNBAK5stLF-314" value="" style="endArrow=classic;html=1;rounded=0;exitX=0.5;exitY=1;exitDx=0;exitDy=0;entryX=0.5;entryY=0;entryDx=0;entryDy=0;" edge="1" parent="1" source="aNOmOmiapZUNBAK5stLF-303" target="aNOmOmiapZUNBAK5stLF-308">
          <mxGeometry width="50" height="50" relative="1" as="geometry">
            <mxPoint x="135" y="1530" as="sourcePoint" />
            <mxPoint x="480" y="1630" as="targetPoint" />
          </mxGeometry>
        </mxCell>
        <mxCell id="aNOmOmiapZUNBAK5stLF-315" value="" style="endArrow=classic;html=1;rounded=0;exitX=0.5;exitY=1;exitDx=0;exitDy=0;entryX=0.5;entryY=0;entryDx=0;entryDy=0;" edge="1" parent="1" source="aNOmOmiapZUNBAK5stLF-304" target="aNOmOmiapZUNBAK5stLF-308">
          <mxGeometry width="50" height="50" relative="1" as="geometry">
            <mxPoint x="145" y="1540" as="sourcePoint" />
            <mxPoint x="490" y="1640" as="targetPoint" />
          </mxGeometry>
        </mxCell>
        <mxCell id="aNOmOmiapZUNBAK5stLF-316" value="" style="endArrow=classic;html=1;rounded=0;exitX=0.5;exitY=1;exitDx=0;exitDy=0;entryX=0.5;entryY=0;entryDx=0;entryDy=0;" edge="1" parent="1" source="aNOmOmiapZUNBAK5stLF-305" target="aNOmOmiapZUNBAK5stLF-308">
          <mxGeometry width="50" height="50" relative="1" as="geometry">
            <mxPoint x="155" y="1550" as="sourcePoint" />
            <mxPoint x="500" y="1650" as="targetPoint" />
          </mxGeometry>
        </mxCell>
        <mxCell id="aNOmOmiapZUNBAK5stLF-317" value="" style="endArrow=classic;html=1;rounded=0;exitX=0.5;exitY=1;exitDx=0;exitDy=0;entryX=0.5;entryY=0;entryDx=0;entryDy=0;" edge="1" parent="1" source="aNOmOmiapZUNBAK5stLF-306" target="aNOmOmiapZUNBAK5stLF-308">
          <mxGeometry width="50" height="50" relative="1" as="geometry">
            <mxPoint x="165" y="1560" as="sourcePoint" />
            <mxPoint x="510" y="1660" as="targetPoint" />
          </mxGeometry>
        </mxCell>
        <mxCell id="aNOmOmiapZUNBAK5stLF-318" value="" style="endArrow=classic;html=1;rounded=0;exitX=0.5;exitY=1;exitDx=0;exitDy=0;entryX=0.5;entryY=0;entryDx=0;entryDy=0;" edge="1" parent="1" source="aNOmOmiapZUNBAK5stLF-301" target="aNOmOmiapZUNBAK5stLF-308">
          <mxGeometry width="50" height="50" relative="1" as="geometry">
            <mxPoint x="175" y="1570" as="sourcePoint" />
            <mxPoint x="520" y="1670" as="targetPoint" />
          </mxGeometry>
        </mxCell>
        <mxCell id="aNOmOmiapZUNBAK5stLF-319" value="&lt;span style=&quot;font-size: 16px;&quot;&gt;MPI_File_write_at_all()&lt;br&gt;&lt;/span&gt;" style="text;html=1;strokeColor=none;fillColor=none;align=center;verticalAlign=middle;whiteSpace=wrap;rounded=0;" vertex="1" parent="1">
          <mxGeometry x="739.5" y="1530" width="111" height="40" as="geometry" />
        </mxCell>
        <mxCell id="aNOmOmiapZUNBAK5stLF-320" value="&lt;font style=&quot;font-size: 24px;&quot;&gt;Data&lt;/font&gt;" style="rounded=0;whiteSpace=wrap;html=1;flipH=1;" vertex="1" parent="1">
          <mxGeometry x="75" y="1800" width="750" height="60" as="geometry" />
        </mxCell>
        <mxCell id="aNOmOmiapZUNBAK5stLF-321" value="&lt;font style=&quot;font-size: 24px;&quot;&gt;MPI Library&lt;/font&gt;" style="rounded=0;whiteSpace=wrap;html=1;flipH=1;" vertex="1" parent="1">
          <mxGeometry x="75" y="1700" width="750" height="60" as="geometry" />
        </mxCell>
        <mxCell id="aNOmOmiapZUNBAK5stLF-322" value="" style="shape=flexArrow;endArrow=classic;html=1;rounded=0;width=12;endSize=7.17;entryX=0.5;entryY=1;entryDx=0;entryDy=0;exitX=0.5;exitY=0;exitDx=0;exitDy=0;endWidth=18;" edge="1" parent="1" source="aNOmOmiapZUNBAK5stLF-321" target="aNOmOmiapZUNBAK5stLF-308">
          <mxGeometry width="50" height="50" relative="1" as="geometry">
            <mxPoint x="447" y="2010" as="sourcePoint" />
            <mxPoint x="397" y="1960" as="targetPoint" />
          </mxGeometry>
        </mxCell>
        <mxCell id="aNOmOmiapZUNBAK5stLF-323" value="&lt;font style=&quot;font-size: 16px;&quot;&gt;fwrite()&lt;/font&gt;" style="text;html=1;strokeColor=none;fillColor=none;align=center;verticalAlign=middle;whiteSpace=wrap;rounded=0;flipH=1;" vertex="1" parent="1">
          <mxGeometry x="475" y="1760" width="70" height="40" as="geometry" />
        </mxCell>
        <mxCell id="aNOmOmiapZUNBAK5stLF-324" value="" style="shape=flexArrow;endArrow=classic;html=1;rounded=0;width=12;endSize=7.17;entryX=0.5;entryY=0;entryDx=0;entryDy=0;exitX=0.5;exitY=1;exitDx=0;exitDy=0;endWidth=18;" edge="1" parent="1" source="aNOmOmiapZUNBAK5stLF-321" target="aNOmOmiapZUNBAK5stLF-320">
          <mxGeometry width="50" height="50" relative="1" as="geometry">
            <mxPoint x="447" y="1970" as="sourcePoint" />
            <mxPoint x="457" y="2060" as="targetPoint" />
          </mxGeometry>
        </mxCell>
      </root>
    </mxGraphModel>
  </diagram>
</mxfile>
